<svg preserveAspectRatio="none" width="100%" height="100%" overflow="visible" style="display: block;" viewBox="0 0 42.5228 42.5302" fill="none" xmlns="http://www.w3.org/2000/svg">
<g id="Group">
<g id="Sparks Board: Note focus - 03b">
<path id="Vector" d="M17.5827 42.5302H24.9401C36.6164 42.5302 42.5228 35.4816 42.5228 23.9786V18.5515C42.5228 7.04853 36.6164 0 24.9401 0H17.5827C5.9064 0 0 7.04853 0 18.5515V23.9786C0 35.4816 5.9064 42.5302 17.5827 42.5302Z" fill="url(#paint0_linear_0_43)"/>
</g>
<path id="Vector_2" d="M8.3475 36.1472C9.29971 36.1472 10.0716 35.3755 10.0716 34.4235C10.0716 33.4715 9.29971 32.6997 8.3475 32.6997C7.39528 32.6997 6.6234 33.4715 6.6234 34.4235C6.6234 35.3755 7.39528 36.1472 8.3475 36.1472Z" fill="var(--fill-0, white)"/>
<path id="Vector_3" d="M13.1785 31.8976C14.5832 31.8976 15.722 30.7591 15.722 29.3547C15.722 27.9503 14.5832 26.8117 13.1785 26.8117C11.7738 26.8117 10.6349 27.9503 10.6349 29.3547C10.6349 30.7591 11.7738 31.8976 13.1785 31.8976Z" stroke="var(--stroke-0, white)" stroke-miterlimit="10"/>
<path id="Vector_4" d="M34.8752 14.5408C35.1825 13.841 35.3532 13.073 35.3532 12.2538C35.3532 9.07944 32.7755 6.4853 29.6004 6.4853C28.1835 6.4853 26.9032 7.01437 25.8961 7.8677C25.1791 6.19517 23.5062 5.01759 21.5602 5.01759C20.2457 5.01759 19.0678 5.54666 18.2143 6.39999C17.3778 5.64906 16.2854 5.17119 15.0563 5.17119C12.4615 5.17119 10.3448 7.28747 10.3448 9.8816C10.3448 11.6736 11.369 13.2266 12.8371 14.0117C12.0689 14.9845 11.5909 16.2133 11.5909 17.5445C11.5909 20.7189 14.1686 23.3131 17.3437 23.3131C17.6681 23.3131 17.9753 23.2619 18.2826 23.2107C19.0849 27.8357 23.0965 31.3514 27.9616 31.3514C33.3901 31.3514 37.7943 26.9482 37.7943 21.521C37.7943 18.7733 36.6676 16.2987 34.8581 14.5237L34.8752 14.5408Z" stroke="var(--stroke-0, white)" stroke-width="2" stroke-miterlimit="10"/>
</g>
<defs>
<linearGradient id="paint0_linear_0_43" x1="41.2425" y1="32.8192" x2="1.25074" y2="9.72006" gradientUnits="userSpaceOnUse">
<stop stop-color="#5FBCFC"/>
<stop offset="0.49" stop-color="#80FCB1"/>
<stop offset="0.56" stop-color="#82FBAC"/>
<stop offset="0.64" stop-color="#88FAA0"/>
<stop offset="0.72" stop-color="#93F88B"/>
<stop offset="0.8" stop-color="#A2F56E"/>
<stop offset="0.88" stop-color="#B6F249"/>
<stop offset="0.96" stop-color="#CDEE1B"/>
<stop offset="1" stop-color="#DBEC03"/>
</linearGradient>
</defs>
</svg>
