<svg preserveAspectRatio="none" width="100%" height="100%" overflow="visible" style="display: block;" viewBox="0 0 42.5228 42.5302" fill="none" xmlns="http://www.w3.org/2000/svg">
<g id="Group">
<g id="Sparks Board: Note focus - 03b">
<path id="Vector" d="M24.9402 0H17.5827C5.90645 0 0 7.04853 0 18.5515V23.9787C0 35.4816 5.90645 42.5302 17.5827 42.5302H24.9402C36.6164 42.5302 42.5228 35.4816 42.5228 23.9787V18.5515C42.5228 7.04853 36.6164 0 24.9402 0Z" fill="url(#paint0_linear_0_36)"/>
</g>
<path id="Vector_2" d="M17.0364 10.24C11.0276 10.24 7.66471 13.1413 6.75996 17.4933H10.9934C11.6421 15.1211 13.5882 13.7045 17.0364 13.7045C21.7309 13.7045 24.0695 16.4181 24.1378 21.3333V25.7878C24.0695 29.4571 22.8063 31.8464 20.2628 32.8533C20.2116 32.8704 20.1433 32.9045 20.0921 32.9216C19.5288 33.1435 18.7776 33.3995 17.1218 33.3995C15.0562 33.3995 14.1003 32.9045 14.0832 32.9045C13.7418 32.7851 13.4345 32.6315 13.1273 32.4437C10.9934 31.2149 9.71316 29.0987 10.2082 27.1531C10.2594 26.9483 10.3277 26.7605 10.413 26.5728C11.0617 25.2075 12.5981 24.3541 14.51 24.3712H17.8388C21.2699 24.2176 23.6428 23.0571 24.1549 21.3675H14.5441C12.9907 21.3675 11.608 21.6747 10.4301 22.2208C8.72307 23.0059 7.47689 24.2859 6.82821 25.8731C6.75993 26.0437 6.69167 26.2144 6.64046 26.4021C6.50389 26.8459 6.41852 27.3067 6.40144 27.7675C6.28195 29.7302 7.10134 31.8123 8.48406 33.4678C8.48406 33.4678 8.50116 33.5019 8.51823 33.519C8.60359 33.6214 8.70602 33.7237 8.79137 33.8091C9.18399 34.2528 9.62781 34.6453 10.1058 34.9867C11.8811 36.2496 14.2198 36.864 17.0535 36.864C17.4632 36.864 17.8388 36.864 18.2314 36.8299C20.6725 36.6763 22.6868 35.9936 24.2231 34.8843C26.8691 32.9899 28.2177 29.7813 28.286 25.6512V21.8795C28.286 14.6944 24.5646 10.2912 17.0535 10.2912L17.0364 10.24Z" fill="var(--fill-0, white)"/>
<path id="Vector_3" d="M31.6489 6.07573L30.7612 8.37974C30.6247 8.7552 30.5393 8.94296 30.4369 9.09656C30.3344 9.23309 30.215 9.35255 30.0784 9.45495C29.9248 9.55735 29.737 9.64268 29.3614 9.77922L27.0569 10.6667L29.3614 11.5542C29.737 11.6907 29.9248 11.776 30.0784 11.8784C30.215 11.9808 30.3344 12.1003 30.4369 12.2368C30.5393 12.3904 30.6247 12.5781 30.7612 12.9536L31.6489 15.2576L32.5365 12.9536C32.6731 12.5781 32.7584 12.3904 32.8609 12.2368C32.9633 12.1003 33.0828 11.9808 33.2194 11.8784C33.373 11.776 33.5608 11.6907 33.9363 11.5542L36.2409 10.6667L33.9363 9.77922C33.5608 9.64268 33.373 9.55735 33.2194 9.45495C33.0828 9.35255 32.9633 9.23309 32.8609 9.09656C32.7584 8.94296 32.6731 8.7552 32.5365 8.37974L31.6489 6.07573Z" stroke="var(--stroke-0, white)" stroke-width="0.75" stroke-linecap="round" stroke-linejoin="round"/>
<path id="Vector_4" d="M35.6946 17.5104V14.9675M34.4143 16.2475H36.9578" stroke="var(--stroke-0, white)" stroke-width="0.75" stroke-linecap="round" stroke-linejoin="round"/>
</g>
<defs>
<linearGradient id="paint0_linear_0_36" x1="4.66027" y1="4.69334" x2="37.8379" y2="37.8615" gradientUnits="userSpaceOnUse">
<stop stop-color="#58A73A"/>
<stop offset="0.19" stop-color="#75B83B"/>
<stop offset="0.32" stop-color="#7CBB36"/>
<stop offset="0.52" stop-color="#90C62B"/>
<stop offset="0.76" stop-color="#B2D719"/>
<stop offset="1" stop-color="#DBEC03"/>
</linearGradient>
</defs>
</svg>
