<svg preserveAspectRatio="none" width="100%" height="100%" overflow="visible" style="display: block;" viewBox="0 0 33.3916 40.6016" fill="none" xmlns="http://www.w3.org/2000/svg">
<path id="Vector" d="M17.1218 40.6016C26.2716 40.6016 31.4099 36.1813 32.7926 29.5424H26.3228C25.3498 33.1435 22.3625 35.328 17.1218 35.328C9.95215 35.328 6.3844 31.1979 6.29905 23.7056C6.29905 23.6032 6.29905 23.5179 6.29905 23.4155V19.1147V16.9131C6.40147 11.3323 8.34751 7.68 12.2055 6.144C12.2908 6.10986 12.3762 6.07573 12.4615 6.0416C13.3321 5.70026 14.4758 5.3248 17.0023 5.3248C20.1433 5.3248 21.6114 6.05867 21.6455 6.07573C22.1576 6.26347 22.6527 6.5024 23.0965 6.77547C26.357 8.63573 28.3201 11.8784 27.5519 14.848C27.4665 15.1552 27.3641 15.4453 27.2276 15.7355C26.2545 17.8347 23.8817 19.1147 20.9968 19.0976H15.9268C10.6862 19.3365 7.06723 21.1115 6.29905 23.6885H9.62778H20.9456C20.9456 23.6885 20.9456 23.6885 20.9627 23.6885C23.3355 23.6885 25.4522 23.2107 27.2276 22.3915C29.8223 21.1968 31.7342 19.2341 32.7073 16.8277C32.8097 16.5717 32.9121 16.2987 32.9974 16.0256C33.2023 15.3429 33.3218 14.6603 33.373 13.9435C33.5608 10.9397 32.3146 7.76533 30.2149 5.23947C30.1978 5.20533 30.1808 5.18826 30.1467 5.15413C30.0101 5.00053 29.8735 4.84693 29.7369 4.69333C29.1224 4.02773 28.4567 3.4304 27.7397 2.88426C25.0426 0.955731 21.4577 0 17.1388 0C16.5243 0 15.9268 0.017065 15.3464 0.068265C11.608 0.307198 8.56944 1.34826 6.19663 3.03786C2.16797 5.9392 0.102424 10.8203 0 17.1349C0 17.2885 0 17.4421 0 17.6128V22.8864C0 33.8432 5.68447 40.5504 17.1388 40.5504L17.1218 40.6016Z" fill="var(--fill-0, #294744)"/>
</svg>
