<svg preserveAspectRatio="none" width="100%" height="100%" overflow="visible" style="display: block;" viewBox="0 0 33.3916 40.6016" fill="none" xmlns="http://www.w3.org/2000/svg">
<path id="Vector" d="M16.2698 0C7.11995 0 1.98172 4.42027 0.599003 11.0592H7.06872C8.04174 7.45814 11.0291 5.2736 16.2698 5.2736C23.4394 5.2736 27.0072 9.40373 27.0925 16.896C27.0925 16.9984 27.0925 17.0837 27.0925 17.1861V21.4869V23.6885C26.9901 29.2693 25.0441 32.9216 21.1861 34.4576C21.1008 34.4917 21.0154 34.5259 20.9301 34.56C20.0595 34.9013 18.9157 35.2768 16.3893 35.2768C13.2483 35.2768 11.7802 34.5429 11.7461 34.5259C11.234 34.3381 10.7389 34.0992 10.2951 33.8261C7.0346 31.9659 5.07146 28.7232 5.83963 25.7536C5.92499 25.4464 6.02741 25.1563 6.16398 24.8661C7.137 22.7669 9.50986 21.4869 12.3948 21.504H17.4648C22.7054 21.2651 26.3244 19.4901 27.0925 16.9131H23.7638H12.446C12.446 16.9131 12.446 16.9131 12.4289 16.9131C10.0561 16.9131 7.93932 17.3909 6.16398 18.2101C3.56925 19.4048 1.65736 21.3675 0.684335 23.7739C0.581911 24.0299 0.479517 24.3029 0.394164 24.576C0.189317 25.2587 0.0698209 25.9413 0.0186091 26.6581C-0.169167 29.6619 1.07694 32.8363 3.17663 35.3621C3.1937 35.3963 3.21078 35.4133 3.24492 35.4475C3.38149 35.6011 3.51804 35.7547 3.6546 35.9083C4.26914 36.5739 4.93492 37.1712 5.65188 37.7173C8.34904 39.6459 11.9338 40.6016 16.2527 40.6016C16.8672 40.6016 17.4647 40.5845 18.0451 40.5333C21.7836 40.2944 24.8221 39.2533 27.195 37.5637C31.2236 34.6624 33.2892 29.7813 33.3916 23.4667C33.3916 23.3131 33.3916 23.1595 33.3916 22.9888V17.7152C33.3916 6.7584 27.7071 0.0512012 16.2527 0.0512012L16.2698 0Z" fill="var(--fill-0, #294744)"/>
</svg>
