<svg preserveAspectRatio="none" width="100%" height="100%" overflow="visible" style="display: block;" viewBox="0 0 708.7 255.1" fill="none" xmlns="http://www.w3.org/2000/svg">
<g id="aether_wordmark_logo 1">
<path id="Vector" d="M295.2 50.8H312C312 67.3 306.8 78.8 299.1 81.1H344.1V96.1H312.5V157.7C312.5 173.9 314.4 178 325.7 178H344.1V193H321.2C299.2 193 295.2 181.8 295.2 161V96.2H270.4V81.2H295.1V50.9L295.2 50.8Z" fill="var(--fill-0, #294744)"/>
<path id="Vector_2" d="M378.3 96.4H405.1C424.5 96.4 433.4 103.4 433.4 117.2V192.9H450.6V116.1C450.6 92.4 433.4 79.8 411.7 79.8C394.7 79.8 381.3 83.1 378.3 92.6V50.9H360.9V192.9H378.3V96.5V96.4Z" fill="var(--fill-0, #294744)"/>
<path id="Vector_3" d="M595.4 96.4H622.2C641.6 96.4 641.1 103.4 641.1 117.2V118.8H658.8V115.5C658.8 91.8 648.2 80 628.1 79.8C611.1 79.6 598.3 83.1 595.4 92.6V81.2H578V193H595.4V96.6V96.4Z" fill="var(--fill-0, #294744)"/>
<path id="Vector_4" d="M106.6 78.5C80.6 78.5 65.9 91.1 62 110H80.4C83.2 99.8 91.7 93.5 106.6 93.5C121.5 93.5 137.2 105.3 137.4 126.6C137.4 126.9 137.4 127.1 137.4 127.4V139.7V145.9C137.1 161.8 131.6 172.2 120.6 176.6C120.3 176.6 120.1 176.8 119.8 176.9C117.3 177.9 114.1 178.9 106.9 178.9C99.7 178.9 93.8 176.8 93.7 176.7C92.2 176.1 90.9 175.5 89.6 174.7C80.3 169.4 74.7 160.2 76.9 151.7C77.1 150.8 77.4 150 77.8 149.2C80.6 143.2 87.3 139.6 95.6 139.6H110C124.9 138.9 135.2 133.9 137.4 126.5H127.9H95.7C88.9 126.5 82.9 127.8 77.9 130.2C70.5 133.6 65.1 139.2 62.3 146.1C62 146.8 61.7 147.6 61.5 148.4C60.9 150.3 60.6 152.3 60.4 154.3C59.9 162.8 63.4 171.9 69.4 179.1C69.4 179.1 69.5 179.3 69.6 179.3C70 179.8 70.4 180.2 70.8 180.6C72.5 182.5 74.5 184.2 76.5 185.7C84.2 191.2 94.4 193.9 106.7 193.9C119 193.9 110.1 193.9 111.8 193.7C122.4 193 131.1 190.1 137.8 185.2C149.3 176.9 155.1 163.1 155.4 145.1C155.4 144.6 155.4 144.2 155.4 143.8V128.8C155.4 97.6 139.2 78.5 106.6 78.5Z" fill="var(--fill-0, #294744)"/>
<path id="Vector_5" d="M217.7 193.9C243.7 193.9 258.4 181.3 262.3 162.4H243.9C241.1 172.6 232.6 178.9 217.7 178.9C202.8 178.9 187.1 167.1 186.9 145.8C186.9 145.5 186.9 145.3 186.9 145V132.7V126.5C187.2 110.6 192.7 100.2 203.7 95.8C204 95.8 204.2 95.6 204.5 95.5C207 94.5 210.2 93.5 217.4 93.5C224.6 93.5 230.5 95.6 230.6 95.7C232.1 96.3 233.4 96.9 234.7 97.7C244 103 249.6 112.2 247.4 120.7C247.2 121.6 246.9 122.4 246.5 123.2C243.7 129.2 237 132.8 228.7 132.8H214.3C199.4 133.5 189.1 138.5 186.9 145.9H196.4H228.6C235.4 145.9 241.4 144.6 246.4 142.2C253.8 138.8 259.2 133.2 262 126.3C262.3 125.6 262.6 124.8 262.8 124C263.4 122.1 263.7 120.1 263.9 118.1C264.4 109.6 260.9 100.5 254.9 93.3C254.9 93.3 254.8 93.1 254.7 93.1C254.3 92.6 253.9 92.2 253.5 91.8C251.8 89.9 249.8 88.2 247.8 86.7C240.1 81.2 229.9 78.5 217.6 78.5C205.3 78.5 214.2 78.5 212.5 78.7C201.9 79.4 193.2 82.3 186.5 87.2C175 95.5 169.2 109.3 168.9 127.3C168.9 127.8 168.9 128.2 168.9 128.6V143.6C168.9 174.8 185.1 193.9 217.7 193.9Z" fill="var(--fill-0, #294744)"/>
<path id="Vector_6" d="M514.1 193.9C540.1 193.9 554.8 181.3 558.7 162.4H540.3C537.5 172.6 529 178.9 514.1 178.9C499.2 178.9 483.5 167.1 483.3 145.8C483.3 145.5 483.3 145.3 483.3 145V132.7V126.5C483.6 110.6 489.1 100.2 500.1 95.8C500.4 95.8 500.6 95.6 500.9 95.5C503.4 94.5 506.6 93.5 513.8 93.5C521 93.5 526.9 95.6 527 95.7C528.5 96.3 529.8 96.9 531.1 97.7C540.4 103 546 112.2 543.8 120.7C543.6 121.6 543.3 122.4 542.9 123.2C540.1 129.2 533.4 132.8 525.1 132.8H510.7C495.8 133.5 485.5 138.5 483.3 145.9H492.8H525C531.8 145.9 537.8 144.6 542.8 142.2C550.2 138.8 555.6 133.2 558.4 126.3C558.7 125.6 559 124.8 559.2 124C559.8 122.1 560.1 120.1 560.3 118.1C560.8 109.6 557.3 100.5 551.3 93.3C551.3 93.3 551.2 93.1 551.1 93.1C550.7 92.6 550.3 92.2 549.9 91.8C548.2 89.9 546.2 88.2 544.2 86.7C536.5 81.2 526.3 78.5 514 78.5C501.7 78.5 510.6 78.5 508.9 78.7C498.3 79.4 489.6 82.3 482.9 87.2C471.4 95.5 465.6 109.3 465.3 127.3C465.3 127.8 465.3 128.2 465.3 128.6V143.6C465.3 174.8 481.5 193.9 514.1 193.9Z" fill="var(--fill-0, #294744)"/>
</g>
</svg>
